<svg xmlns="http://www.w3.org/2000/svg" version="1.1" xmlns:xlink="http://www.w3.org/1999/xlink" xmlns:svgjs="http://svgjs.dev/svgjs" width="1000" height="623" viewBox="0 0 1000 623"><g transform="matrix(1,0,0,1,-0.6060606060606233,108.02473491194712)"><svg viewBox="0 0 396 247" data-background-color="#d2d6dc" preserveAspectRatio="xMidYMid meet" height="623" width="1000" xmlns="http://www.w3.org/2000/svg" xmlns:xlink="http://www.w3.org/1999/xlink"><g id="tight-bounds" transform="matrix(1,0,0,1,0.2400000000000091,-0.09999999999999432)"><svg viewBox="0 0 395.52 247.2" height="247.2" width="395.52"><g><svg></svg></g><g><svg viewBox="0 0 395.52 247.2" height="247.2" width="395.52"><g transform="matrix(1,0,0,1,75.54432,78.17940493848708)"><svg viewBox="0 0 244.43135999999998 90.84119012302583" height="90.84119012302583" width="244.43135999999998"><g><svg viewBox="0 0 244.43135999999998 90.84119012302583" height="90.84119012302583" width="244.43135999999998"><g><svg viewBox="0 0 244.43135999999998 90.84119012302583" height="90.84119012302583" width="244.43135999999998"><g><svg viewBox="0 0 244.43135999999998 90.84119012302583" height="90.84119012302583" width="244.43135999999998"><g><svg viewBox="0 0 244.43135999999998 90.84119012302583" height="90.84119012302583" width="244.43135999999998"><g><svg viewBox="0 0 244.43135999999998 59.14951157619359" height="59.14951157619359" width="244.43135999999998"><g transform="matrix(1,0,0,1,0,0)"><svg width="244.43135999999998" viewBox="4.449999809265137 -36.5 152.88999938964844 37" height="59.14951157619359" data-palette-color="#6b7280"><path d="M16.5 0L4.45 0 4.45-35.5 16.5-35.5Q22.15-35.5 25.93-33.13 29.7-30.75 31.6-26.73 33.5-22.7 33.5-17.8L33.5-17.8Q33.5-12.4 31.43-8.4 29.35-4.4 25.53-2.2 21.7 0 16.5 0L16.5 0ZM30-17.8L30-17.8Q30-22.05 28.43-25.35 26.85-28.65 23.85-30.53 20.85-32.4 16.5-32.4L16.5-32.4 7.95-32.4 7.95-3.1 16.5-3.1Q20.9-3.1 23.9-5.05 26.9-7 28.45-10.33 30-13.65 30-17.8ZM50.6 0.5L50.6 0.5Q47.8 0.5 45.42-0.58 43.05-1.65 41.32-3.53 39.6-5.4 38.65-7.83 37.7-10.25 37.7-12.95L37.7-12.95Q37.7-15.75 38.65-18.18 39.6-20.6 41.35-22.48 43.1-24.35 45.47-25.43 47.85-26.5 50.65-26.5L50.65-26.5Q53.45-26.5 55.8-25.43 58.15-24.35 59.9-22.48 61.65-20.6 62.6-18.18 63.55-15.75 63.55-12.95L63.55-12.95Q63.55-10.25 62.6-7.83 61.65-5.4 59.92-3.53 58.2-1.65 55.82-0.58 53.45 0.5 50.6 0.5ZM41.15-12.9L41.15-12.9Q41.15-10 42.42-7.63 43.7-5.25 45.85-3.88 48-2.5 50.6-2.5L50.6-2.5Q53.2-2.5 55.35-3.9 57.5-5.3 58.8-7.73 60.1-10.15 60.1-13L60.1-13Q60.1-15.9 58.8-18.3 57.5-20.7 55.35-22.1 53.2-23.5 50.6-23.5L50.6-23.5Q48-23.5 45.87-22.05 43.75-20.6 42.45-18.23 41.15-15.85 41.15-12.9ZM69-10.75L69-10.75 69-26.05 72.4-26.05 72.4-11.35Q72.4-6.9 73.92-4.7 75.45-2.5 78.45-2.5L78.45-2.5Q80.45-2.5 82.32-3.38 84.2-4.25 85.65-5.88 87.09-7.5 87.84-9.65L87.84-9.65 87.84-26.05 91.25-26.05 91.25-4.1Q91.25-3.4 91.55-3.08 91.84-2.75 92.45-2.7L92.45-2.7 92.45 0Q91.84 0.05 91.5 0.08 91.15 0.1 90.84 0.1L90.84 0.1Q89.84 0 89.12-0.7 88.4-1.4 88.34-2.4L88.34-2.4 88.25-5.9Q86.55-2.9 83.62-1.2 80.7 0.5 77.3 0.5L77.3 0.5Q73.2 0.5 71.09-2.35 69-5.2 69-10.75ZM111.69 0.5L111.69 0.5Q108.64 0.5 106.04-1.07 103.44-2.65 101.99-5.05L101.99-5.05 101.99 0 98.94 0 98.94-36.5 102.34-36.5 102.34-20.6Q104.09-23.25 106.54-24.88 108.99-26.5 112.24-26.5L112.24-26.5Q114.99-26.5 117.17-25.35 119.34-24.2 120.89-22.28 122.44-20.35 123.24-17.93 124.04-15.5 124.04-12.95L124.04-12.95Q124.04-10.2 123.12-7.8 122.19-5.4 120.49-3.53 118.79-1.65 116.57-0.58 114.34 0.5 111.69 0.5ZM110.89-2.5L110.89-2.5Q112.99-2.5 114.79-3.35 116.59-4.2 117.89-5.7 119.19-7.2 119.89-9.08 120.59-10.95 120.59-12.95L120.59-12.95Q120.59-15.7 119.42-18.13 118.24-20.55 116.17-22.03 114.09-23.5 111.29-23.5L111.29-23.5Q109.29-23.5 107.57-22.6 105.84-21.7 104.52-20.23 103.19-18.75 102.34-17L102.34-17 102.34-8.9Q102.54-7.55 103.39-6.38 104.24-5.2 105.52-4.35 106.79-3.5 108.19-3 109.59-2.5 110.89-2.5ZM138.34 0.5L138.34 0.5Q135.14 0.5 132.39-0.55 129.64-1.6 127.64-3.75L127.64-3.75 129.04-6.15Q131.24-4.1 133.47-3.18 135.69-2.25 138.19-2.25L138.19-2.25Q141.24-2.25 143.14-3.48 145.04-4.7 145.04-7L145.04-7Q145.04-8.55 144.12-9.38 143.19-10.2 141.47-10.73 139.74-11.25 137.34-11.85L137.34-11.85Q134.64-12.6 132.82-13.43 130.99-14.25 130.07-15.53 129.14-16.8 129.14-18.85L129.14-18.85Q129.14-21.4 130.42-23.08 131.69-24.75 133.92-25.63 136.14-26.5 138.89-26.5L138.89-26.5Q141.89-26.5 144.19-25.55 146.49-24.6 147.94-22.9L147.94-22.9 146.29-20.6Q144.89-22.2 142.97-22.98 141.04-23.75 138.69-23.75L138.69-23.75Q137.09-23.75 135.64-23.33 134.19-22.9 133.27-21.93 132.34-20.95 132.34-19.25L132.34-19.25Q132.34-17.85 133.04-17.07 133.74-16.3 135.14-15.78 136.54-15.25 138.59-14.65L138.59-14.65Q141.54-13.85 143.74-13.03 145.94-12.2 147.14-10.9 148.34-9.6 148.34-7.25L148.34-7.25Q148.34-3.6 145.59-1.55 142.84 0.5 138.34 0.5ZM157.34 0L153.94 0 153.94-26.05 157.34-26.05 157.34 0ZM157.34-31.5L153.94-31.5 153.94-36.5 157.34-36.5 157.34-31.5Z" opacity="1" transform="matrix(1,0,0,1,0,0)" fill="#ffffff" class="undefined-text-0" data-fill-palette-color="primary" id="text-0"></path></svg></g></svg></g><g transform="matrix(1,0,0,1,0,73.11329167105507)"><svg viewBox="0 0 244.43135999999998 17.727898451970752" height="17.727898451970752" width="244.43135999999998"><g transform="matrix(1,0,0,1,0,0)"><svg width="244.43135999999998" viewBox="5.650000095367432 -42.29999923706055 594.8899536132812 43.14999771118164" height="17.727898451970752" data-palette-color="#6b7280"><path d="M24.55-19.25Q31.3-17.05 31.3-10.2L31.3-10.2Q31.3-5.05 28.25-2.53 25.2 0 18.1 0L18.1 0 5.65 0 5.65-37.9 18.1-37.9Q24.55-37.9 27.18-35.43 29.8-32.95 29.8-27.75L29.8-27.75Q29.8-21.6 24.55-19.25L24.55-19.25ZM9.5-34.55L9.5-20.7 18.1-20.7Q22-20.7 23.93-22.43 25.85-24.15 25.85-27.75L25.85-27.75Q25.85-31.4 24.13-32.98 22.4-34.55 18.1-34.55L18.1-34.55 9.5-34.55ZM27.35-10.4Q27.35-14 25.03-15.68 22.7-17.35 18.1-17.35L18.1-17.35 9.5-17.35 9.5-3.35 18.1-3.35Q23.2-3.35 25.28-5.03 27.35-6.7 27.35-10.4L27.35-10.4ZM46.3 0.65Q42.7 0.65 41.2-0.75 39.7-2.15 39.7-5.65L39.7-5.65 39.7-42.3 43.4-42.3 43.4-6.45Q43.4-4.4 44.05-3.65 44.7-2.9 46.5-2.9L46.5-2.9Q47.9-2.9 48.9-3.1L48.9-3.1 48.9 0.35Q47.45 0.65 46.3 0.65L46.3 0.65ZM66.5 0.85Q62.2 0.85 59.22-1.07 56.25-3 54.75-6.3 53.25-9.6 53.25-13.75L53.25-13.75Q53.25-17.85 54.75-21.15 56.25-24.45 59.22-26.35 62.2-28.25 66.5-28.25L66.5-28.25Q70.8-28.25 73.77-26.35 76.75-24.45 78.25-21.15 79.75-17.85 79.75-13.75L79.75-13.75Q79.75-9.6 78.25-6.3 76.75-3 73.77-1.07 70.8 0.85 66.5 0.85L66.5 0.85ZM66.5-2.65Q70.95-2.65 73.42-5.75 75.9-8.85 75.9-13.75L75.9-13.75Q75.9-18.6 73.42-21.7 70.95-24.8 66.5-24.8L66.5-24.8Q62.05-24.8 59.57-21.7 57.1-18.6 57.1-13.75L57.1-13.75Q57.1-8.85 59.57-5.75 62.05-2.65 66.5-2.65L66.5-2.65ZM99.04 0.85Q92.69 0.8 89.29-3.15 85.89-7.1 85.89-13.8L85.89-13.8Q85.89-20.45 89.29-24.35 92.69-28.25 99.04-28.25L99.04-28.25Q101.19-28.25 102.79-27.95 104.39-27.65 106.19-26.9L106.19-26.9 106.19-23.2Q104.34-24.05 102.72-24.4 101.09-24.75 99.19-24.75L99.19-24.75Q94.24-24.7 91.99-21.75 89.74-18.8 89.74-13.85L89.74-13.85Q89.74-8.8 91.97-5.78 94.19-2.75 99.14-2.7L99.14-2.7Q102.84-2.7 107.09-4.75L107.09-4.75 108.34-1.5Q103.89 0.85 99.04 0.85L99.04 0.85ZM132.44 0L121.74-13.6 118.54-10.35 118.54 0 114.84 0 114.84-42.3 118.54-42.3 118.54-15.15 130.49-27.3 135.19-27.3 124.29-16.2 137.04 0 132.44 0ZM154.59 0.85Q148.24 0.8 144.84-3.15 141.44-7.1 141.44-13.8L141.44-13.8Q141.44-20.45 144.84-24.35 148.24-28.25 154.59-28.25L154.59-28.25Q156.74-28.25 158.34-27.95 159.94-27.65 161.74-26.9L161.74-26.9 161.74-23.2Q159.89-24.05 158.26-24.4 156.64-24.75 154.74-24.75L154.74-24.75Q149.79-24.7 147.54-21.75 145.29-18.8 145.29-13.85L145.29-13.85Q145.29-8.8 147.51-5.78 149.74-2.75 154.69-2.7L154.69-2.7Q158.39-2.7 162.64-4.75L162.64-4.75 163.89-1.5Q159.44 0.85 154.59 0.85L154.59 0.85ZM182.64-28.05Q187.64-28.05 190.01-25.43 192.39-22.8 192.39-16.6L192.39-16.6 192.39 0 188.69 0 188.69-16.6Q188.69-20.95 187.29-22.75 185.89-24.55 182.34-24.55L182.34-24.55Q178.14-24.55 174.09-20.9L174.09-20.9 174.09 0 170.39 0 170.39-42.3 174.09-42.3 174.09-24.35Q176.04-26.1 178.24-27.08 180.44-28.05 182.64-28.05L182.64-28.05ZM209.53-27.45Q213.63-27.45 215.76-25.98 217.88-24.5 218.61-22.03 219.33-19.55 219.33-15.8L219.33-15.8 219.33 0 215.63 0 215.63-2.85Q213.63-1 211.71-0.18 209.78 0.65 207.58 0.65L207.58 0.65Q205.13 0.65 203.08-0.48 201.03-1.6 199.81-3.7 198.58-5.8 198.58-8.7L198.58-8.7Q198.58-13.2 201.38-15.68 204.18-18.15 208.88-18.15L208.88-18.15Q210.58-18.15 212.36-17.73 214.13-17.3 215.63-16.5L215.63-16.5Q215.58-19.2 215.08-20.8 214.58-22.4 213.13-23.28 211.68-24.15 208.78-24.15L208.78-24.15 205.58-24.15 205.58-27.45 209.53-27.45ZM207.88-2.7Q211.83-2.7 215.63-6.15L215.63-6.15 215.63-13.35Q212.78-14.85 209.23-14.85L209.23-14.85Q206.33-14.85 204.36-13.43 202.38-12 202.38-8.7L202.38-8.7Q202.38-5.55 204.06-4.13 205.73-2.7 207.88-2.7L207.88-2.7ZM227.33-32.85L227.33-40.4 231.03-40.4 231.03-32.85 227.33-32.85ZM227.33 0L227.33-27.45 231.03-27.45 231.03 0 227.33 0ZM252.78-28.05Q257.78-28.05 260.15-25.43 262.53-22.8 262.53-16.6L262.53-16.6 262.53 0 258.83 0 258.83-16.6Q258.83-20.95 257.43-22.75 256.03-24.55 252.48-24.55L252.48-24.55Q248.28-24.55 244.23-20.9L244.23-20.9 244.23 0 240.53 0 240.53-27.45 244.23-27.45 244.23-24.35Q246.18-26.1 248.38-27.08 250.58-28.05 252.78-28.05L252.78-28.05ZM306.17-34.35L287.52-34.35 287.52-20.25 303.67-20.25 303.67-16.7 287.52-16.7 287.52 0 283.67 0 283.67-37.9 306.17-37.9 306.17-34.35ZM331.37-27.45L335.07-27.45 335.07 0 331.37 0 331.37-3.15Q329.47-1.4 327.27-0.4 325.07 0.6 322.82 0.6L322.82 0.6Q317.82 0.6 315.45-2.05 313.07-4.7 313.07-10.9L313.07-10.9 313.07-27.45 316.77-27.45 316.77-10.9Q316.77-6.55 318.17-4.75 319.57-2.95 323.17-2.95L323.17-2.95Q327.37-2.95 331.37-6.6L331.37-6.6 331.37-27.45ZM351.17 0.65Q347.57 0.65 346.07-0.75 344.57-2.15 344.57-5.65L344.57-5.65 344.57-42.3 348.27-42.3 348.27-6.45Q348.27-4.4 348.92-3.65 349.57-2.9 351.37-2.9L351.37-2.9Q352.77-2.9 353.77-3.1L353.77-3.1 353.77 0.35Q352.32 0.65 351.17 0.65L351.17 0.65ZM366.37 0.65Q362.77 0.65 361.27-0.75 359.77-2.15 359.77-5.65L359.77-5.65 359.77-42.3 363.47-42.3 363.47-6.45Q363.47-4.4 364.12-3.65 364.77-2.9 366.57-2.9L366.57-2.9Q367.97-2.9 368.97-3.1L368.97-3.1 368.97 0.35Q367.52 0.65 366.37 0.65L366.37 0.65ZM382.81 0.85Q379.91 0.85 377.64 0.35 375.36-0.15 372.91-1.3L372.91-1.3 372.91-5.2Q377.46-2.6 382.81-2.6L382.81-2.6Q385.81-2.6 387.19-3.9 388.56-5.2 388.56-7.25L388.56-7.25Q388.56-9.3 387.44-10.25 386.31-11.2 383.86-11.9L383.86-11.9 380.96-12.65Q377.61-13.5 375.64-15.28 373.66-17.05 373.66-20.7L373.66-20.7Q373.66-24.2 375.96-26.23 378.26-28.25 382.71-28.25L382.71-28.25Q385.16-28.25 387.11-27.8 389.06-27.35 391.06-26.45L391.06-26.45 391.06-22.8Q389.06-23.75 387.21-24.28 385.36-24.8 382.81-24.8L382.81-24.8Q379.96-24.8 378.71-23.63 377.46-22.45 377.46-20.75L377.46-20.75Q377.46-18.75 378.61-17.78 379.76-16.8 382.01-16.2L382.01-16.2 384.91-15.45Q387.31-14.8 388.89-13.98 390.46-13.15 391.41-11.55 392.36-9.95 392.36-7.3L392.36-7.3Q392.36-3.4 389.76-1.28 387.16 0.85 382.81 0.85L382.81 0.85ZM410.81-23.75L404.41-23.75 404.41-6.45Q404.41-4.4 405.06-3.65 405.71-2.9 407.51-2.9L407.51-2.9Q409.01-2.9 410.76-3.3L410.76-3.3 410.76 0.2Q408.91 0.65 407.11 0.65L407.11 0.65Q404.61 0.65 403.24 0 401.86-0.65 401.29-2.05 400.71-3.45 400.71-5.9L400.71-5.9 400.71-23.75 397.21-23.75 397.21-27.3 400.71-27.3 400.71-36.8 404.41-36.8 404.41-27.3 410.81-27.3 410.81-23.75ZM425.71-27.45Q429.81-27.45 431.93-25.98 434.06-24.5 434.78-22.03 435.51-19.55 435.51-15.8L435.51-15.8 435.51 0 431.81 0 431.81-2.85Q429.81-1 427.88-0.18 425.96 0.65 423.76 0.65L423.76 0.65Q421.31 0.65 419.26-0.48 417.21-1.6 415.98-3.7 414.76-5.8 414.76-8.7L414.76-8.7Q414.76-13.2 417.56-15.68 420.36-18.15 425.06-18.15L425.06-18.15Q426.76-18.15 428.53-17.73 430.31-17.3 431.81-16.5L431.81-16.5Q431.76-19.2 431.26-20.8 430.76-22.4 429.31-23.28 427.86-24.15 424.96-24.15L424.96-24.15 421.76-24.15 421.76-27.45 425.71-27.45ZM424.06-2.7Q428.01-2.7 431.81-6.15L431.81-6.15 431.81-13.35Q428.96-14.85 425.41-14.85L425.41-14.85Q422.51-14.85 420.53-13.43 418.56-12 418.56-8.7L418.56-8.7Q418.56-5.55 420.23-4.13 421.91-2.7 424.06-2.7L424.06-2.7ZM455.01 0.85Q448.66 0.8 445.26-3.15 441.86-7.1 441.86-13.8L441.86-13.8Q441.86-20.45 445.26-24.35 448.66-28.25 455.01-28.25L455.01-28.25Q457.16-28.25 458.76-27.95 460.36-27.65 462.16-26.9L462.16-26.9 462.16-23.2Q460.31-24.05 458.68-24.4 457.06-24.75 455.16-24.75L455.16-24.75Q450.21-24.7 447.96-21.75 445.71-18.8 445.71-13.85L445.71-13.85Q445.71-8.8 447.93-5.78 450.16-2.75 455.11-2.7L455.11-2.7Q458.81-2.7 463.06-4.75L463.06-4.75 464.31-1.5Q459.86 0.85 455.01 0.85L455.01 0.85ZM488.4 0L477.7-13.6 474.5-10.35 474.5 0 470.8 0 470.8-42.3 474.5-42.3 474.5-15.15 486.45-27.3 491.15-27.3 480.25-16.2 493 0 488.4 0ZM523.4-37.9Q532.5-37.9 537.12-33.08 541.75-28.25 541.75-18.9L541.75-18.9Q541.75-9.5 537.15-4.75 532.55 0 523.4 0L523.4 0 510.95 0 510.95-37.9 523.4-37.9ZM523.4-3.45Q530.6-3.45 534.22-7.2 537.85-10.95 537.85-19.05L537.85-19.05Q537.85-26.95 534.17-30.7 530.5-34.45 523.4-34.45L523.4-34.45 514.8-34.45 514.8-3.45 523.4-3.45ZM552-13.95L552-13.85Q552-8.8 554.3-5.7 556.6-2.6 561.65-2.6L561.65-2.6Q565.3-2.6 569.75-4.65L569.75-4.65 570.95-1.45Q566.55 0.85 561.45 0.85L561.45 0.85Q555.1 0.85 551.62-3.15 548.15-7.15 548.15-13.8L548.15-13.8Q548.15-18.4 549.75-21.65 551.35-24.9 554.12-26.58 556.9-28.25 560.35-28.25L560.35-28.25Q565.6-28.25 568.6-24.95 571.6-21.65 571.65-15.4L571.65-15.4 571.65-13.95 552-13.95ZM560.35-24.8Q557.1-24.8 554.97-22.93 552.85-21.05 552.25-17.3L552.25-17.3 567.75-17.3Q567.45-21.15 565.65-22.98 563.85-24.8 560.35-24.8L560.35-24.8ZM596.64-27.45L600.54-27.45 589.69 0.45 585.79 0.45 574.94-27.45 578.84-27.45 587.74-4.25 596.64-27.45Z" opacity="1" transform="matrix(1,0,0,1,0,0)" fill="#ffffff" class="undefined-text-1" data-fill-palette-color="secondary" id="text-1"></path></svg></g></svg></g></svg></g></svg></g><g></g></svg></g></svg></g></svg></g><g><path d="M90.942 64.216A122.216 122.216 0 0 1 304.578 64.216L299.244 64.216A116.882 116.882 0 0 0 96.276 64.216L90.942 64.216M90.942 182.984A122.216 122.216 0 0 0 304.578 182.984L299.244 182.984A116.882 116.882 0 0 1 96.276 182.984L90.942 182.984" fill="#ffffff" stroke="transparent" data-fill-palette-color="tertiary"></path></g></svg></g><defs></defs></svg><rect width="395.52" height="247.2" fill="none" stroke="none" visibility="hidden"></rect></g></svg></g></svg>